<?xml version="1.0" encoding="UTF-8" standalone="no"?>
<!-- Created with Inkscape (http://www.inkscape.org/) -->

<svg
   version="1.1"
   id="svg2"
   xml:space="preserve"
   width="16"
   height="16"
   viewBox="0 0 16 16"
   sodipodi:docname="thinlinc_icon_symbolic.svg"
   inkscape:version="1.1.2 (0a00cf5339, 2022-02-04)"
   xmlns:inkscape="http://www.inkscape.org/namespaces/inkscape"
   xmlns:sodipodi="http://sodipodi.sourceforge.net/DTD/sodipodi-0.dtd"
   xmlns="http://www.w3.org/2000/svg"
   xmlns:svg="http://www.w3.org/2000/svg"><defs
     id="defs6" /><sodipodi:namedview
     id="namedview4"
     pagecolor="#555753"
     bordercolor="#999999"
     borderopacity="1"
     inkscape:pageshadow="0"
     inkscape:pageopacity="1"
     inkscape:pagecheckerboard="0"
     showgrid="false"
     inkscape:zoom="16"
     inkscape:cx="16.5"
     inkscape:cy="15.28125"
     inkscape:window-width="1920"
     inkscape:window-height="1131"
     inkscape:window-x="1920"
     inkscape:window-y="32"
     inkscape:window-maximized="1"
     inkscape:current-layer="g8"><inkscape:grid
       type="xygrid"
       id="grid845"
       empspacing="4" /></sodipodi:namedview><g
     id="g8"
     inkscape:groupmode="layer"
     inkscape:label="thinlinc_icon_full-colour"
     transform="matrix(1.3333333,0,0,-1.3333333,0,266.66667)"><path
       id="rect1361"
       style="fill:#bebebe;stroke-width:3.77953;stroke-linecap:round;stroke-linejoin:round;fill-opacity:1"
       d="M 3 0 C 1.338 0 0 1.338 0 3 L 0 13 C -5.9211895e-16 14.662 1.338 16 3 16 L 4 16 L 4 10 C 4 8.89552 4.8953603 8 6 8 C 7.10464 8 8 7.10464 8 6 C 8 4.89552 8.89552 4 10 4 L 16 4 L 16 3 C 16 1.338 14.662 0 13 0 L 3 0 z M 10 8 C 8.89552 8 8 8.89552 8 10 L 8 16 L 13 16 C 14.662 16 16 14.662 16 13 L 16 8 L 10 8 z "
       transform="matrix(0.75000002,0,0,-0.75000002,0,200.00001)" /></g></svg>
